<mxfile host="Electron" modified="2024-06-11T11:33:55.649Z" agent="Mozilla/5.0 (Windows NT 10.0; Win64; x64) AppleWebKit/537.36 (KHTML, like Gecko) draw.io/23.1.5 Chrome/120.0.6099.109 Electron/28.1.0 Safari/537.36" etag="X0acj6WQAjmkzrN9UOW6" version="23.1.5" type="device">
  <diagram name="Страница — 1" id="4wzEmIea6KRLLtgWoZCD">
    <mxGraphModel dx="1276" dy="614" grid="1" gridSize="10" guides="1" tooltips="1" connect="1" arrows="1" fold="1" page="1" pageScale="1" pageWidth="827" pageHeight="1169" math="0" shadow="0">
      <root>
        <mxCell id="0" />
        <mxCell id="1" parent="0" />
        <mxCell id="bp56nNnRnB3YtiIDnrRw-3" value="" style="edgeStyle=orthogonalEdgeStyle;rounded=0;orthogonalLoop=1;jettySize=auto;html=1;" parent="1" source="bp56nNnRnB3YtiIDnrRw-1" target="bp56nNnRnB3YtiIDnrRw-2" edge="1">
          <mxGeometry relative="1" as="geometry" />
        </mxCell>
        <mxCell id="bp56nNnRnB3YtiIDnrRw-1" value="начало" style="ellipse;whiteSpace=wrap;html=1;" parent="1" vertex="1">
          <mxGeometry x="240" y="30" width="230" height="80" as="geometry" />
        </mxCell>
        <mxCell id="bp56nNnRnB3YtiIDnrRw-5" value="" style="edgeStyle=orthogonalEdgeStyle;rounded=0;orthogonalLoop=1;jettySize=auto;html=1;" parent="1" source="bp56nNnRnB3YtiIDnrRw-2" edge="1">
          <mxGeometry relative="1" as="geometry">
            <mxPoint x="354" y="280" as="targetPoint" />
          </mxGeometry>
        </mxCell>
        <mxCell id="bp56nNnRnB3YtiIDnrRw-2" value="ввод слов через пробел" style="shape=parallelogram;perimeter=parallelogramPerimeter;whiteSpace=wrap;html=1;fixedSize=1;" parent="1" vertex="1">
          <mxGeometry x="240" y="170" width="230" height="60" as="geometry" />
        </mxCell>
        <mxCell id="bp56nNnRnB3YtiIDnrRw-11" style="edgeStyle=orthogonalEdgeStyle;rounded=0;orthogonalLoop=1;jettySize=auto;html=1;entryX=0;entryY=0.5;entryDx=0;entryDy=0;" parent="1" edge="1">
          <mxGeometry relative="1" as="geometry">
            <Array as="points">
              <mxPoint x="479" y="510" />
              <mxPoint x="479" y="400" />
            </Array>
            <mxPoint x="517.75" y="400" as="targetPoint" />
          </mxGeometry>
        </mxCell>
        <mxCell id="bp56nNnRnB3YtiIDnrRw-25" value="" style="edgeStyle=orthogonalEdgeStyle;rounded=0;orthogonalLoop=1;jettySize=auto;html=1;entryX=0.5;entryY=0;entryDx=0;entryDy=0;" parent="1" source="bp56nNnRnB3YtiIDnrRw-23" target="HNcyy0roVe8xxu0S5Uh4-1" edge="1">
          <mxGeometry relative="1" as="geometry">
            <mxPoint x="350" y="410" as="targetPoint" />
          </mxGeometry>
        </mxCell>
        <mxCell id="bp56nNnRnB3YtiIDnrRw-23" value="поиск слов, которые меньше или равны 3 символам" style="rounded=0;whiteSpace=wrap;html=1;" parent="1" vertex="1">
          <mxGeometry x="240" y="280" width="220" height="70" as="geometry" />
        </mxCell>
        <mxCell id="bp56nNnRnB3YtiIDnrRw-27" value="" style="edgeStyle=orthogonalEdgeStyle;rounded=0;orthogonalLoop=1;jettySize=auto;html=1;exitX=0.485;exitY=0.932;exitDx=0;exitDy=0;exitPerimeter=0;" parent="1" source="HNcyy0roVe8xxu0S5Uh4-1" target="bp56nNnRnB3YtiIDnrRw-26" edge="1">
          <mxGeometry relative="1" as="geometry">
            <mxPoint x="350" y="490" as="sourcePoint" />
          </mxGeometry>
        </mxCell>
        <mxCell id="bp56nNnRnB3YtiIDnrRw-26" value="конец" style="ellipse;whiteSpace=wrap;html=1;" parent="1" vertex="1">
          <mxGeometry x="235" y="530" width="230" height="80" as="geometry" />
        </mxCell>
        <mxCell id="HNcyy0roVe8xxu0S5Uh4-1" value="&#xa;&lt;span style=&quot;color: rgb(0, 0, 0); font-family: Helvetica; font-size: 12px; font-style: normal; font-variant-ligatures: normal; font-variant-caps: normal; font-weight: 400; letter-spacing: normal; orphans: 2; text-align: center; text-indent: 0px; text-transform: none; widows: 2; word-spacing: 0px; -webkit-text-stroke-width: 0px; background-color: rgb(251, 251, 251); text-decoration-thickness: initial; text-decoration-style: initial; text-decoration-color: initial; float: none; display: inline !important;&quot;&gt;вывод слов которые меньше или равны 3 символам&lt;/span&gt;&#xa;&#xa;" style="shape=document;whiteSpace=wrap;html=1;boundedLbl=1;" vertex="1" parent="1">
          <mxGeometry x="240" y="400" width="220" height="90" as="geometry" />
        </mxCell>
      </root>
    </mxGraphModel>
  </diagram>
</mxfile>
